<svg xmlns="http://www.w3.org/2000/svg" width="1920" height="1080" viewBox="0 0 1920 1080" role="img" aria-labelledby="title desc">
  <title id="title">AtomVoice overview infographic</title>
  <desc id="desc">Shows how AtomVoice turns speech into text in the current Mac app.</desc>
  <defs>
    <linearGradient id="bg" x1="0" y1="0" x2="1" y2="1">
      <stop offset="0%" stop-color="#f8fbf9"/>
      <stop offset="52%" stop-color="#f4f7fb"/>
      <stop offset="100%" stop-color="#fff7ee"/>
    </linearGradient>
    <filter id="softShadow" x="-8%" y="-8%" width="116%" height="124%">
      <feDropShadow dx="0" dy="14" stdDeviation="16" flood-color="#17212b" flood-opacity="0.14"/>
    </filter>
    <filter id="coreShadow" x="-12%" y="-12%" width="124%" height="132%">
      <feDropShadow dx="0" dy="22" stdDeviation="24" flood-color="#17212b" flood-opacity="0.24"/>
    </filter>
    <style>
      .page { font-family: "BlackSquareSans", "Black Square Sans", -apple-system, BlinkMacSystemFont, "SF Pro Display", "SF Pro Text", "PingFang SC", "Hiragino Sans GB", "Microsoft YaHei", sans-serif; }
      .kicker { font-size: 30px; font-weight: 760; fill: #596570; }
      .title { font-size: 62px; font-weight: 860; fill: #141d26; letter-spacing: 0; stroke: #141d26; stroke-width: 1.2px; paint-order: stroke fill; }
      .sub { font-size: 28px; font-weight: 560; fill: #4e5a64; }
      .card { fill: #ffffff; stroke-width: 2.5; filter: url(#softShadow); }
      .cardTitle { font-size: 34px; font-weight: 860; fill: #151f29; }
      .body { font-size: 25px; font-weight: 600; fill: #34404b; }
      .small { font-size: 22px; font-weight: 650; fill: #56626d; }
      .badge { font-size: 20px; font-weight: 820; fill: #ffffff; }
      .coreTextDark { font-size: 26px; font-weight: 760; fill: #17212b; }
      .arrow { stroke: #aeb8c2; stroke-width: 5; stroke-linecap: round; fill: none; }
      .ring { fill: none; stroke: #d8e0e7; stroke-width: 3; stroke-dasharray: 10 12; }
    </style>
  </defs>

  <rect width="1920" height="1080" fill="url(#bg)"/>
  <g class="page">
    <text x="110" y="92" class="kicker">AtomVoice Overview</text>
    <text x="110" y="170" class="title">Hold to speak, text appears in the current app</text>
    <text x="110" y="222" class="sub">No window switching or copy-paste. It works like a keyboard for your voice.</text>

    <g transform="translate(625 318)">
      <circle cx="335" cy="260" r="250" fill="#ffffff" opacity="0.7"/>
      <circle cx="335" cy="260" r="300" class="ring"/>
      <image href="../../../localdoc/原子微语图标.svg" x="145" y="42" width="380" height="380" preserveAspectRatio="xMidYMid meet" filter="url(#coreShadow)"/>
      <text x="335" y="486" class="coreTextDark" text-anchor="middle">Speak, then text appears</text>
    </g>

    <g transform="translate(110 330)">
      <rect x="0" y="0" width="430" height="218" rx="28" class="card" stroke="#218b63"/>
      <rect x="34" y="32" width="132" height="38" rx="19" fill="#218b63"/>
      <text x="100" y="58" class="badge" text-anchor="middle">Start</text>
      <text x="34" y="115" class="cardTitle">Speak when ready</text>
      <text x="34" y="158" class="body">Hold a hotkey to start</text>
      <text x="34" y="194" class="small">Headphone control Beta optional</text>
    </g>

    <g transform="translate(110 650)">
      <rect x="0" y="0" width="430" height="218" rx="28" class="card" stroke="#4f74bd"/>
      <rect x="34" y="32" width="132" height="38" rx="19" fill="#4f74bd"/>
      <text x="100" y="58" class="badge" text-anchor="middle">Recognize</text>
      <text x="34" y="115" class="cardTitle">Choose by scenario</text>
      <text x="34" y="158" class="body">Local, system, or cloud</text>
      <text x="34" y="194" class="small">Balance privacy and accuracy</text>
    </g>

    <g transform="translate(1380 330)">
      <rect x="0" y="0" width="430" height="218" rx="28" class="card" stroke="#7b72c8"/>
      <rect x="34" y="32" width="132" height="38" rx="19" fill="#7b72c8"/>
      <text x="100" y="58" class="badge" text-anchor="middle">Improve</text>
      <text x="34" y="115" class="cardTitle">Optional AI refinement</text>
      <text x="34" y="158" class="body">Fix speech style and punctuation</text>
      <text x="34" y="194" class="small">Only recognized text is processed</text>
    </g>

    <g transform="translate(1380 650)">
      <rect x="0" y="0" width="430" height="218" rx="28" class="card" stroke="#bd6637"/>
      <rect x="34" y="32" width="132" height="38" rx="19" fill="#bd6637"/>
      <text x="100" y="58" class="badge" text-anchor="middle">Output</text>
      <text x="34" y="115" class="cardTitle">Directly to the cursor</text>
      <text x="34" y="158" class="body">Works in mail, chat, and notes</text>
      <text x="34" y="194" class="small">No transcription window needed</text>
    </g>

    <path d="M 545 440 C 620 440, 650 472, 700 510" class="arrow"/>
    <polygon points="701,492 722,528 682,518" fill="#aeb8c2"/>
    <path d="M 545 760 C 620 760, 650 700, 704 660" class="arrow"/>
    <polygon points="687,655 725,644 706,680" fill="#aeb8c2"/>
    <path d="M 1375 440 C 1300 440, 1270 472, 1220 510" class="arrow"/>
    <polygon points="1238,518 1198,528 1219,492" fill="#aeb8c2"/>
    <path d="M 1375 760 C 1300 760, 1270 700, 1216 660" class="arrow"/>
    <polygon points="1214,680 1195,644 1233,655" fill="#aeb8c2"/>
  </g>
</svg>
