<svg xmlns="http://www.w3.org/2000/svg" width="1920" height="1080" viewBox="0 0 1920 1080" role="img" aria-labelledby="title desc">
  <title id="title">AtomVoice speech-to-text flow</title>
  <desc id="desc">Shows how AtomVoice records, recognizes, optionally refines, and inserts text into the current Mac app.</desc>
  <defs>
    <linearGradient id="bg" x1="0" y1="0" x2="1" y2="1">
      <stop offset="0%" stop-color="#f8fbf9"/>
      <stop offset="52%" stop-color="#f4f7fb"/>
      <stop offset="100%" stop-color="#fff7ee"/>
    </linearGradient>
    <linearGradient id="rail" x1="0" y1="0" x2="1" y2="0">
      <stop offset="0%" stop-color="#168b63"/>
      <stop offset="45%" stop-color="#4b73bb"/>
      <stop offset="100%" stop-color="#c56935"/>
    </linearGradient>
    <filter id="softShadow" x="-8%" y="-8%" width="116%" height="124%">
      <feDropShadow dx="0" dy="14" stdDeviation="16" flood-color="#17212b" flood-opacity="0.14"/>
    </filter>
    <style>
      .page { font-family: "BlackSquareSans", "Black Square Sans", -apple-system, BlinkMacSystemFont, "SF Pro Display", "SF Pro Text", "PingFang SC", "Hiragino Sans GB", "Microsoft YaHei", sans-serif; }
      .kicker { font-size: 30px; font-weight: 760; fill: #596570; }
      .title { font-size: 62px; font-weight: 860; fill: #141d26; letter-spacing: 0; stroke: #141d26; stroke-width: 1.2px; paint-order: stroke fill; }
      .sub { font-size: 28px; font-weight: 560; fill: #4e5a64; }
      .card { fill: #ffffff; stroke-width: 2.5; filter: url(#softShadow); }
      .num { font-size: 28px; font-weight: 860; fill: #ffffff; }
      .icon { font-size: 48px; font-weight: 860; fill: #17212b; }
      .stepTitle { font-size: 31px; font-weight: 860; fill: #151f29; }
      .body { font-size: 21px; font-weight: 590; fill: #34404b; }
      .calloutTitle { font-size: 34px; font-weight: 860; fill: #17212b; }
      .callout { font-size: 26px; font-weight: 610; fill: #4f5b66; }
      .arrowLine { stroke: #aeb8c2; stroke-width: 5; stroke-linecap: round; }
      .arrowHead { fill: #aeb8c2; }
      .mic { fill: none; stroke: #17212b; stroke-width: 8; stroke-linecap: round; stroke-linejoin: round; }
    </style>
  </defs>

  <rect width="1920" height="1080" fill="url(#bg)"/>
  <g class="page">
    <text x="110" y="92" class="kicker">AtomVoice input flow</text>
    <text x="110" y="170" class="title">How speech becomes text in the current app</text>
    <text x="110" y="222" class="sub">No window switching: hold to speak, and text appears where you are typing.</text>

    <g transform="translate(115 332)">
      <rect x="0" y="0" width="300" height="350" rx="28" class="card" stroke="#218b63"/>
      <circle cx="56" cy="56" r="32" fill="#218b63"/>
      <text x="56" y="66" class="num" text-anchor="middle">1</text>
      <text x="150" y="132" class="icon" text-anchor="middle">⌘</text>
      <text x="36" y="205" class="stepTitle">Start input</text>
      <text x="36" y="258" class="body">Hold or tap a hotkey</text>
      <text x="36" y="296" class="body">Headphone control</text>
    </g>

    <g transform="translate(460 332)">
      <rect x="0" y="0" width="300" height="350" rx="28" class="card" stroke="#2e9f83"/>
      <circle cx="56" cy="56" r="32" fill="#2e9f83"/>
      <text x="56" y="66" class="num" text-anchor="middle">2</text>
      <g transform="translate(150 116)">
        <rect x="-28" y="-45" width="56" height="82" rx="28" class="mic"/>
        <path d="M -54 -6 C -54 48, 54 48, 54 -6" class="mic"/>
        <path d="M 0 47 L 0 84" class="mic"/>
        <path d="M -34 84 L 34 84" class="mic"/>
      </g>
      <text x="36" y="205" class="stepTitle">Capture speech</text>
      <text x="36" y="258" class="body">Current microphone</text>
      <text x="36" y="296" class="body">Capsule shows status</text>
    </g>

    <g transform="translate(805 332)">
      <rect x="0" y="0" width="300" height="350" rx="28" class="card" stroke="#4f74bd"/>
      <circle cx="56" cy="56" r="32" fill="#4f74bd"/>
      <text x="56" y="66" class="num" text-anchor="middle">3</text>
      <text x="150" y="132" class="icon" text-anchor="middle">ASR</text>
      <text x="36" y="205" class="stepTitle">Recognize text</text>
      <text x="36" y="258" class="body">Three engines available</text>
      <text x="36" y="296" class="body">Local or cloud</text>
    </g>

    <g transform="translate(1150 332)">
      <rect x="0" y="0" width="300" height="350" rx="28" class="card" stroke="#7b72c8"/>
      <circle cx="56" cy="56" r="32" fill="#7b72c8"/>
      <text x="56" y="66" class="num" text-anchor="middle">4</text>
      <text x="150" y="132" class="icon" text-anchor="middle">AI</text>
      <text x="36" y="205" class="stepTitle">Refine text</text>
      <text x="36" y="258" class="body">Optional LLM</text>
      <text x="36" y="296" class="body">Only text is sent</text>
    </g>

    <g transform="translate(1495 332)">
      <rect x="0" y="0" width="310" height="350" rx="28" class="card" stroke="#bd6637"/>
      <circle cx="56" cy="56" r="32" fill="#bd6637"/>
      <text x="56" y="66" class="num" text-anchor="middle">5</text>
      <text x="155" y="132" class="icon" text-anchor="middle">▣</text>
      <text x="36" y="205" class="stepTitle">Insert directly</text>
      <text x="36" y="258" class="body">At the cursor</text>
      <text x="36" y="296" class="body">No copy-paste</text>
    </g>

    <line x1="425" y1="507" x2="438" y2="507" class="arrowLine"/>
    <polygon points="438,494 455,507 438,520" class="arrowHead"/>
    <line x1="770" y1="507" x2="783" y2="507" class="arrowLine"/>
    <polygon points="783,494 800,507 783,520" class="arrowHead"/>
    <line x1="1115" y1="507" x2="1128" y2="507" class="arrowLine"/>
    <polygon points="1128,494 1145,507 1128,520" class="arrowHead"/>
    <line x1="1460" y1="507" x2="1473" y2="507" class="arrowLine"/>
    <polygon points="1473,494 1490,507 1473,520" class="arrowHead"/>

    <g transform="translate(150 790)">
      <rect x="0" y="0" width="1620" height="122" rx="28" fill="#ffffff" stroke="#d8e0e7" stroke-width="2" filter="url(#softShadow)"/>
      <rect x="0" y="0" width="1620" height="12" rx="6" fill="url(#rail)"/>
      <text x="42" y="62" class="calloutTitle">Core experience: voice input happens where you already work</text>
      <text x="42" y="99" class="callout">Email, chat, notes, and prompts do not require a separate transcription window.</text>
    </g>
  </g>
</svg>
