<?xml version="1.0"?>
<svg xmlns="http://www.w3.org/2000/svg" viewBox="0 0 1024 1024" role="img" aria-label="原子微语 AtomVoice">
  <title>原子微语 AtomVoice</title>

  <defs>
    <filter id="iconShadow" x="-12%" y="-5%" width="124%" height="125%">
      <feGaussianBlur in="SourceAlpha" stdDeviation="14"></feGaussianBlur>
      <feOffset dy="24"></feOffset>
      <feComponentTransfer><feFuncA type="linear" slope="0.28"></feFuncA></feComponentTransfer>
      <feMerge>
        <feMergeNode></feMergeNode>
        <feMergeNode in="SourceGraphic"></feMergeNode>
      </feMerge>
    </filter>

    <filter id="bodyInnerShadow" x="-3%" y="-3%" width="106%" height="106%">
      <feGaussianBlur in="SourceAlpha" stdDeviation="4"></feGaussianBlur>
      <feOffset dy="3"></feOffset>
      <feComposite in2="SourceAlpha" operator="arithmetic" k2="-1" k3="1"></feComposite>
      <feColorMatrix values="0 0 0 0 0  0 0 0 0 0  0 0 0 0 0  0 0 0 0.35 0"></feColorMatrix>
      <feComposite in2="SourceGraphic" operator="in"></feComposite>
    </filter>

    <filter id="barGlow" x="-200%" y="-100%" width="500%" height="300%">
      <feGaussianBlur stdDeviation="18"></feGaussianBlur>
    </filter>

    <filter id="softGlow" x="-50%" y="-50%" width="200%" height="200%">
      <feGaussianBlur stdDeviation="2"></feGaussianBlur>
    </filter>

    <filter id="pillDropShadow" x="-10%" y="-10%" width="120%" height="140%">
      <feGaussianBlur in="SourceAlpha" stdDeviation="10"></feGaussianBlur>
      <feOffset dy="6"></feOffset>
      <feComponentTransfer><feFuncA type="linear" slope="0.45"></feFuncA></feComponentTransfer>
      <feMerge>
        <feMergeNode></feMergeNode>
        <feMergeNode in="SourceGraphic"></feMergeNode>
      </feMerge>
    </filter>

    <linearGradient id="bodyMain" x1="0.5" y1="0" x2="0.5" y2="1">
      <stop offset="0" stop-color="#f4f3f0"></stop>
      <stop offset="0.5" stop-color="#e3e1dd"></stop>
      <stop offset="1" stop-color="#c2c0bd"></stop>
    </linearGradient>

    <linearGradient id="bodyTopGlow" x1="0.5" y1="0" x2="0.5" y2="0.28">
      <stop offset="0" stop-color="#ffffff" stop-opacity="0.6"></stop>
      <stop offset="1" stop-color="#ffffff" stop-opacity="0"></stop>
    </linearGradient>

    <linearGradient id="bodyBottomShade" x1="0.5" y1="0.6" x2="0.5" y2="1">
      <stop offset="0" stop-color="#000000" stop-opacity="0"></stop>
      <stop offset="1" stop-color="#15140f" stop-opacity="0.22"></stop>
    </linearGradient>

    <linearGradient id="bezelChrome" x1="0.5" y1="0" x2="0.5" y2="1">
      <stop offset="0" stop-color="#fbfbfa"></stop>
      <stop offset="0.12" stop-color="#e7e5e2"></stop>
      <stop offset="0.28" stop-color="#9a9794"></stop>
      <stop offset="0.5" stop-color="#6b6967"></stop>
      <stop offset="0.72" stop-color="#b9b6b3"></stop>
      <stop offset="0.88" stop-color="#ecebe8"></stop>
      <stop offset="1" stop-color="#cfcdca"></stop>
    </linearGradient>

    <linearGradient id="bezelInnerLip" x1="0.5" y1="0" x2="0.5" y2="1">
      <stop offset="0" stop-color="#1c1c1e"></stop>
      <stop offset="0.5" stop-color="#0a0a0c"></stop>
      <stop offset="1" stop-color="#2a2a2c"></stop>
    </linearGradient>

    <linearGradient id="blackPill" x1="0.5" y1="0" x2="0.5" y2="1">
      <stop offset="0" stop-color="#1a1a1d"></stop>
      <stop offset="0.5" stop-color="#0a0a0c"></stop>
      <stop offset="1" stop-color="#050507"></stop>
    </linearGradient>

    <radialGradient id="blackPillTopGlow" cx="0.5" cy="0.1" r="0.7" fx="0.5" fy="0">
      <stop offset="0" stop-color="#3a3a3e" stop-opacity="0.55"></stop>
      <stop offset="0.6" stop-color="#1a1a1d" stop-opacity="0"></stop>
    </radialGradient>

    <linearGradient id="barBlue" x1="0.5" y1="0" x2="0.5" y2="1">
      <stop offset="0" stop-color="#7DB8FF"></stop>
      <stop offset="0.5" stop-color="#3B82F6"></stop>
      <stop offset="1" stop-color="#1E40AF"></stop>
    </linearGradient>

    <linearGradient id="barCyan" x1="0.5" y1="0" x2="0.5" y2="1">
      <stop offset="0" stop-color="#7FF1E0"></stop>
      <stop offset="0.5" stop-color="#22D3EE"></stop>
      <stop offset="1" stop-color="#0891B2"></stop>
    </linearGradient>

    <linearGradient id="barGreen" x1="0.5" y1="0" x2="0.5" y2="1">
      <stop offset="0" stop-color="#A7F3C8"></stop>
      <stop offset="0.5" stop-color="#22C55E"></stop>
      <stop offset="1" stop-color="#15803D"></stop>
    </linearGradient>

    <linearGradient id="barShine" x1="0.5" y1="0" x2="0.5" y2="0.7">
      <stop offset="0" stop-color="#ffffff" stop-opacity="0.55"></stop>
      <stop offset="1" stop-color="#ffffff" stop-opacity="0"></stop>
    </linearGradient>

    <clipPath id="blackPillClip">
      <rect x="201" y="355" width="622" height="314" rx="157" ry="157"></rect>
    </clipPath>
  </defs>

  
  <g filter="url(#iconShadow)">
    <rect x="72" y="72" width="880" height="880" rx="220" ry="220" fill="url(#bodyMain)"></rect>
    <rect x="72" y="72" width="880" height="880" rx="220" ry="220" fill="url(#bodyTopGlow)"></rect>
    <rect x="72" y="72" width="880" height="880" rx="220" ry="220" fill="url(#bodyBottomShade)"></rect>
    <rect x="72" y="72" width="880" height="880" rx="220" ry="220" fill="black" filter="url(#bodyInnerShadow)"></rect>

    
    <path d="M 220 105 Q 512 86 804 105" stroke="#ffffff" stroke-opacity="0.85" stroke-width="2" fill="none" stroke-linecap="round"></path>

    
    <rect x="72" y="72" width="880" height="880" rx="220" ry="220" fill="none" stroke="#8a8987" stroke-opacity="0.4" stroke-width="1.5"></rect>
  </g>

  
  
  <g filter="url(#pillDropShadow)">
    <rect x="187" y="341" width="650" height="342" rx="171" fill="url(#bezelChrome)"></rect>
  </g>

  <rect x="187" y="341" width="650" height="342" rx="171" fill="none" stroke="#3a3937" stroke-opacity="0.5" stroke-width="1.5"></rect>

  <rect x="195" y="349" width="634" height="326" rx="163" fill="url(#bezelInnerLip)"></rect>
  <rect x="201" y="355" width="622" height="314" rx="157" fill="url(#blackPill)"></rect>
  <rect x="201" y="355" width="622" height="314" rx="157" fill="url(#blackPillTopGlow)"></rect>

  
  <g clip-path="url(#blackPillClip)">
    <g filter="url(#barGlow)" opacity="0.5">
      <rect x="341" y="464" width="38" height="96" rx="19" fill="#3B82F6"></rect>
      <rect x="417" y="425" width="38" height="174" rx="19" fill="#22D3EE"></rect>
      <rect x="493" y="389" width="38" height="246" rx="19" fill="#22C55E"></rect>
      <rect x="569" y="425" width="38" height="174" rx="19" fill="#22D3EE"></rect>
      <rect x="645" y="464" width="38" height="96" rx="19" fill="#3B82F6"></rect>
    </g>

    <rect x="341" y="464" width="38" height="96" rx="19" fill="url(#barBlue)"></rect>
    <rect x="341" y="464" width="38" height="22" rx="19" fill="url(#barShine)"></rect>

    <rect x="417" y="425" width="38" height="174" rx="19" fill="url(#barCyan)"></rect>
    <rect x="417" y="425" width="38" height="34" rx="19" fill="url(#barShine)"></rect>

    <rect x="493" y="389" width="38" height="246" rx="19" fill="url(#barGreen)"></rect>
    <rect x="493" y="389" width="38" height="48" rx="19" fill="url(#barShine)"></rect>

    <rect x="569" y="425" width="38" height="174" rx="19" fill="url(#barCyan)"></rect>
    <rect x="569" y="425" width="38" height="34" rx="19" fill="url(#barShine)"></rect>

    <rect x="645" y="464" width="38" height="96" rx="19" fill="url(#barBlue)"></rect>
    <rect x="645" y="464" width="38" height="22" rx="19" fill="url(#barShine)"></rect>

    <g opacity="0.7">
      <ellipse cx="360" cy="472" rx="10" ry="2.5" fill="#ffffff" filter="url(#softGlow)"></ellipse>
      <ellipse cx="436" cy="433" rx="10" ry="2.5" fill="#ffffff" filter="url(#softGlow)"></ellipse>
      <ellipse cx="512" cy="397" rx="10" ry="2.5" fill="#ffffff" filter="url(#softGlow)"></ellipse>
      <ellipse cx="588" cy="433" rx="10" ry="2.5" fill="#ffffff" filter="url(#softGlow)"></ellipse>
      <ellipse cx="664" cy="472" rx="10" ry="2.5" fill="#ffffff" filter="url(#softGlow)"></ellipse>
    </g>
  </g>
</svg>