<?xml version="1.0" encoding="UTF-8"?>
<svg xmlns="http://www.w3.org/2000/svg" viewBox="0 0 1024 1024" role="img" aria-label="原子微语 AtomVoice">
  <title>原子微语 AtomVoice</title>
  <defs>
    <linearGradient id="bodySurface" x1="512" y1="72" x2="512" y2="952" gradientUnits="userSpaceOnUse">
      <stop offset="0" stop-color="#F7F5F0"/>
      <stop offset="0.55" stop-color="#E7E3DA"/>
      <stop offset="1" stop-color="#CFCAC0"/>
    </linearGradient>
    <linearGradient id="bezel" x1="512" y1="341" x2="512" y2="683" gradientUnits="userSpaceOnUse">
      <stop offset="0" stop-color="#F9F8F4"/>
      <stop offset="0.20" stop-color="#D8D3CB"/>
      <stop offset="0.52" stop-color="#8E8A84"/>
      <stop offset="0.80" stop-color="#DCD8D0"/>
      <stop offset="1" stop-color="#BDB7AF"/>
    </linearGradient>
    <linearGradient id="innerLip" x1="512" y1="349" x2="512" y2="675" gradientUnits="userSpaceOnUse">
      <stop offset="0" stop-color="#222326"/>
      <stop offset="0.52" stop-color="#07080B"/>
      <stop offset="1" stop-color="#292A2E"/>
    </linearGradient>
    <linearGradient id="pill" x1="512" y1="355" x2="512" y2="669" gradientUnits="userSpaceOnUse">
      <stop offset="0" stop-color="#1C1D22"/>
      <stop offset="0.48" stop-color="#08090C"/>
      <stop offset="1" stop-color="#030407"/>
    </linearGradient>
    <linearGradient id="blueBar" x1="0" y1="389" x2="0" y2="635" gradientUnits="userSpaceOnUse">
      <stop offset="0" stop-color="#80BBFF"/>
      <stop offset="0.55" stop-color="#3B82F6"/>
      <stop offset="1" stop-color="#1E40AF"/>
    </linearGradient>
    <linearGradient id="cyanBar" x1="0" y1="389" x2="0" y2="635" gradientUnits="userSpaceOnUse">
      <stop offset="0" stop-color="#8AF5E7"/>
      <stop offset="0.55" stop-color="#22D3EE"/>
      <stop offset="1" stop-color="#0891B2"/>
    </linearGradient>
    <linearGradient id="greenBar" x1="0" y1="389" x2="0" y2="635" gradientUnits="userSpaceOnUse">
      <stop offset="0" stop-color="#A8F5CA"/>
      <stop offset="0.55" stop-color="#22C55E"/>
      <stop offset="1" stop-color="#15803D"/>
    </linearGradient>
  </defs>

  <rect x="72" y="72" width="880" height="880" rx="220" ry="220" fill="url(#bodySurface)"/>
  <rect x="72" y="72" width="880" height="880" rx="220" ry="220" fill="none" stroke="#8A8987" stroke-opacity="0.28" stroke-width="2"/>

  <rect x="187" y="341" width="650" height="342" rx="171" ry="171" fill="url(#bezel)"/>
  <rect x="187" y="341" width="650" height="342" rx="171" ry="171" fill="none" stroke="#3A3937" stroke-opacity="0.32" stroke-width="2"/>

  <rect x="195" y="349" width="634" height="326" rx="163" ry="163" fill="url(#innerLip)"/>
  <rect x="201" y="355" width="622" height="314" rx="157" ry="157" fill="url(#pill)"/>
  <ellipse cx="512" cy="388" rx="230" ry="55" fill="#FFFFFF" opacity="0.07"/>

  <rect x="341" y="464" width="38" height="96" rx="19" ry="19" fill="url(#blueBar)"/>
  <rect x="645" y="464" width="38" height="96" rx="19" ry="19" fill="url(#blueBar)"/>
  <rect x="417" y="425" width="38" height="174" rx="19" ry="19" fill="url(#cyanBar)"/>
  <rect x="569" y="425" width="38" height="174" rx="19" ry="19" fill="url(#cyanBar)"/>
  <rect x="493" y="389" width="38" height="246" rx="19" ry="19" fill="url(#greenBar)"/>
</svg>
